<?xml version="1.0" encoding="UTF-8"?>
<svg xmlns="http://www.w3.org/2000/svg" xmlns:xlink="http://www.w3.org/1999/xlink" viewBox="0 0 128 128" width="128px" height="128px">
<g id="surface34033914">
<path style=" stroke:none;fill-rule:nonzero;fill:rgb(100%,100%,100%);fill-opacity:1;" d="M 37.996094 30 C 19.246094 30.042969 4.070312 45.253906 4.070312 64.003906 C 4.070312 82.753906 19.246094 97.964844 37.996094 98.007812 C 56.746094 97.964844 71.921875 82.753906 71.921875 64.003906 C 71.921875 45.253906 56.746094 30.042969 37.996094 30 Z M 90.996094 32 C 81.621094 32.042969 74.035156 46.359375 74.035156 64.003906 C 74.035156 81.648438 81.621094 95.964844 90.996094 96.007812 C 100.371094 95.964844 107.957031 81.648438 107.957031 64.003906 C 107.957031 46.359375 100.371094 32.042969 90.996094 32 Z M 117 34 C 114.496094 33.972656 112.175781 39.6875 110.921875 48.980469 C 109.667969 58.273438 109.667969 69.734375 110.921875 79.027344 C 112.175781 88.320312 114.496094 94.035156 117 94.007812 C 119.503906 94.035156 121.824219 88.320312 123.078125 79.027344 C 124.332031 69.734375 124.332031 58.273438 123.078125 48.980469 C 121.824219 39.6875 119.503906 33.972656 117 34 Z M 117 34 "/>
</g>
</svg>
